HIERARCHY
ROOT Hips
{
    OFFSET   0.000000   0.000000   0.000000
    CHANNELS 6 Xposition Yposition Zposition Zrotation Xrotation Yrotation
    JOINT Chest
    {
        OFFSET   0.000000   8.007240   0.000000
        CHANNELS 3 Zrotation Xrotation Yrotation
        JOINT Chest2
        {
            OFFSET   0.000000  22.077100   0.000000
            CHANNELS 3 Zrotation Xrotation Yrotation
            JOINT Neck
            {
                OFFSET   0.000000  23.254800   0.000000
                CHANNELS 3 Zrotation Xrotation Yrotation
                JOINT Head
                {
                    OFFSET   0.000000  14.370000   1.956600
                    CHANNELS 3 Zrotation Xrotation Yrotation
                    End Site
                    {
                        OFFSET   0.000000  19.566000   0.000000
                    }
                }
            }
            JOINT LeftCollar
            {
                OFFSET   3.911900  19.017000  -0.467064
                CHANNELS 3 Zrotation Xrotation Yrotation
                JOINT LeftShoulder
                {
                    OFFSET  10.383700   0.000000   0.000000
                    CHANNELS 3 Zrotation Xrotation Yrotation
                    JOINT LeftElbow
                    {
                        OFFSET  26.662100   0.001476   0.000517
                        CHANNELS 3 Zrotation Xrotation Yrotation
                        JOINT LeftWrist
                        {
                            OFFSET  28.869000  -0.000025  -0.000106
                            CHANNELS 3 Zrotation Xrotation Yrotation
                            JOINT LeftFinger0
                            {
                                OFFSET   2.044660  -2.323460   3.252850
                                CHANNELS 3 Zrotation Xrotation Yrotation
                                JOINT LeftFinger01
                                {
                                    OFFSET   3.088130   0.000000   0.000000
                                    CHANNELS 3 Zrotation Xrotation Yrotation
                                    JOINT LeftFinger02
                                    {
                                        OFFSET   2.639460   0.000000   0.000000
                                        CHANNELS 3 Zrotation Xrotation Yrotation
                                        End Site
                                        {
                                            OFFSET   2.582190   0.000000   0.000000
                                        }
                                    }
                                }
                            }
                            JOINT LeftFinger1
                            {
                                OFFSET   8.364480   0.000000   3.252850
                                CHANNELS 3 Zrotation Xrotation Yrotation
                                JOINT LeftFinger11
                                {
                                    OFFSET   4.646930   0.000000   0.000000
                                    CHANNELS 3 Zrotation Xrotation Yrotation
                                    JOINT LeftFinger12
                                    {
                                        OFFSET   2.323460   0.000000   0.000000
                                        CHANNELS 3 Zrotation Xrotation Yrotation
                                        End Site
                                        {
                                            OFFSET   2.273050   0.000000   0.000000
                                        }
                                    }
                                }
                            }
                            JOINT LeftFinger2
                            {
                                OFFSET   8.364490   0.000015   1.078090
                                CHANNELS 3 Zrotation Xrotation Yrotation
                                JOINT LeftFinger21
                                {
                                    OFFSET   5.111620   0.000000   0.000000
                                    CHANNELS 3 Zrotation Xrotation Yrotation
                                    JOINT LeftFinger22
                                    {
                                        OFFSET   2.788160   0.000016   0.000000
                                        CHANNELS 3 Zrotation Xrotation Yrotation
                                        End Site
                                        {
                                            OFFSET   2.727660   0.000000   0.000000
                                        }
                                    }
                                }
                            }
                            JOINT LeftFinger3
                            {
                                OFFSET   7.899780   0.000017  -1.078090
                                CHANNELS 3 Zrotation Xrotation Yrotation
                                JOINT LeftFinger31
                                {
                                    OFFSET   4.646930   0.000000   0.000000
                                    CHANNELS 3 Zrotation Xrotation Yrotation
                                    JOINT LeftFinger32
                                    {
                                        OFFSET   2.323470   0.000000   0.000000
                                        CHANNELS 3 Zrotation Xrotation Yrotation
                                        End Site
                                        {
                                            OFFSET   2.273050   0.000000   0.000000
                                        }
                                    }
                                }
                            }
                            JOINT LeftFinger4
                            {
                                OFFSET   7.435090   0.000000  -3.252850
                                CHANNELS 3 Zrotation Xrotation Yrotation
                                JOINT LeftFinger41
                                {
                                    OFFSET   3.717550   0.000000   0.000000
                                    CHANNELS 3 Zrotation Xrotation Yrotation
                                    JOINT LeftFinger42
                                    {
                                        OFFSET   1.858770   0.000000   0.000000
                                        CHANNELS 3 Zrotation Xrotation Yrotation
                                        End Site
                                        {
                                            OFFSET   1.818440   0.000000   0.000000
                                        }
                                    }
                                }
                            }
                        }
                    }
                }
            }
            JOINT RightCollar
            {
                OFFSET  -3.911900  19.017000  -0.467063
                CHANNELS 3 Zrotation Xrotation Yrotation
                JOINT RightShoulder
                {
                    OFFSET -10.383700   0.000019   0.000000
                    CHANNELS 3 Zrotation Xrotation Yrotation
                    JOINT RightElbow
                    {
                        OFFSET -26.662100   0.001175   0.000102
                        CHANNELS 3 Zrotation Xrotation Yrotation
                        JOINT RightWrist
                        {
                            OFFSET -28.869000   0.000016  -0.000079
                            CHANNELS 3 Zrotation Xrotation Yrotation
                            JOINT RightFinger0
                            {
                                OFFSET  -2.044660  -2.323490   3.252850
                                CHANNELS 3 Zrotation Xrotation Yrotation
                                JOINT RightFinger01
                                {
                                    OFFSET  -3.088140   0.000000   0.000000
                                    CHANNELS 3 Zrotation Xrotation Yrotation
                                    JOINT RightFinger02
                                    {
                                        OFFSET  -2.639460   0.000000   0.000000
                                        CHANNELS 3 Zrotation Xrotation Yrotation
                                        End Site
                                        {
                                            OFFSET  -2.582190   0.000000   0.000000
                                        }
                                    }
                                }
                            }
                            JOINT RightFinger1
                            {
                                OFFSET  -8.364480   0.000000   3.252850
                                CHANNELS 3 Zrotation Xrotation Yrotation
                                JOINT RightFinger11
                                {
                                    OFFSET  -4.646930   0.000000   0.000000
                                    CHANNELS 3 Zrotation Xrotation Yrotation
                                    JOINT RightFinger12
                                    {
                                        OFFSET  -2.323470   0.000000   0.000000
                                        CHANNELS 3 Zrotation Xrotation Yrotation
                                        End Site
                                        {
                                            OFFSET  -2.273050   0.000000   0.000000
                                        }
                                    }
                                }
                            }
                            JOINT RightFinger2
                            {
                                OFFSET  -8.364480   0.000000   1.078090
                                CHANNELS 3 Zrotation Xrotation Yrotation
                                JOINT RightFinger21
                                {
                                    OFFSET  -5.111620   0.000000   0.000000
                                    CHANNELS 3 Zrotation Xrotation Yrotation
                                    JOINT RightFinger22
                                    {
                                        OFFSET  -2.788160   0.000000   0.000000
                                        CHANNELS 3 Zrotation Xrotation Yrotation
                                        End Site
                                        {
                                            OFFSET  -2.727660   0.000000   0.000000
                                        }
                                    }
                                }
                            }
                            JOINT RightFinger3
                            {
                                OFFSET  -7.899780   0.000000  -1.078090
                                CHANNELS 3 Zrotation Xrotation Yrotation
                                JOINT RightFinger31
                                {
                                    OFFSET  -4.646930   0.000000   0.000000
                                    CHANNELS 3 Zrotation Xrotation Yrotation
                                    JOINT RightFinger32
                                    {
                                        OFFSET  -2.323470   0.000000   0.000000
                                        CHANNELS 3 Zrotation Xrotation Yrotation
                                        End Site
                                        {
                                            OFFSET  -2.273050   0.000000   0.000000
                                        }
                                    }
                                }
                            }
                            JOINT RightFinger4
                            {
                                OFFSET  -7.435090   0.000000  -3.252850
                                CHANNELS 3 Zrotation Xrotation Yrotation
                                JOINT RightFinger41
                                {
                                    OFFSET  -3.717550   0.000000   0.000000
                                    CHANNELS 3 Zrotation Xrotation Yrotation
                                    JOINT RightFinger42
                                    {
                                        OFFSET  -1.858770   0.000000   0.000000
                                        CHANNELS 3 Zrotation Xrotation Yrotation
                                        End Site
                                        {
                                            OFFSET  -1.818440   0.000000   0.000000
                                        }
                                    }
                                }
                            }
                        }
                    }
                }
            }
        }
    }
    JOINT LeftHip
    {
        OFFSET   9.783040   0.000000   0.000000
        CHANNELS 3 Zrotation Xrotation Yrotation
        JOINT LeftKnee
        {
            OFFSET   0.000032 -41.789100  -0.002222
            CHANNELS 3 Zrotation Xrotation Yrotation
            JOINT LeftAnkle
            {
                OFFSET   0.000087 -41.133200  -0.000135
                CHANNELS 3 Zrotation Xrotation Yrotation
                JOINT LeftToe
                {
                    OFFSET   0.000000  -6.358960  14.674500
                    CHANNELS 3 Zrotation Xrotation Yrotation
                    End Site
                    {
                        OFFSET   0.000000   0.000000   3.913200
                    }
                }
            }
        }
    }
    JOINT RightHip
    {
        OFFSET  -9.783040   0.000000   0.000000
        CHANNELS 3 Zrotation Xrotation Yrotation
        JOINT RightKnee
        {
            OFFSET   0.000047 -41.789100  -0.000896
            CHANNELS 3 Zrotation Xrotation Yrotation
            JOINT RightAnkle
            {
                OFFSET  -0.000117 -41.133300  -0.000248
                CHANNELS 3 Zrotation Xrotation Yrotation
                JOINT RightToe
                {
                    OFFSET   0.000000  -6.358970  14.674500
                    CHANNELS 3 Zrotation Xrotation Yrotation
                    End Site
                    {
                        OFFSET   0.000000   0.000000   3.913200
                    }
                }
            }
        }
    }
}
MOTION
Frames: 6
Frame Time:   0.016667
  0.931961  89.513200   0.689698  -0.286233  -2.001470   0.140709   1.172560   1.546410  -0.883219   2.370120   3.074240  -1.798900  -2.345800   0.844599   0.030319  -3.866890   1.704250   5.368100  -5.155520   3.554000  10.918500 -78.203700  10.512400   1.801520   0.717943   5.837650 -16.432900   8.847900  -6.120580   0.602976  39.413800  33.243700 -48.800800 -33.237900   0.012480   0.008220 -11.618900   0.005542   0.005416 -34.816400  -0.870482   1.240710 -28.493900   0.001100   0.004270 -19.955500   0.000698   0.001554 -32.090500  -3.695650   5.873720 -48.420700   0.000497   0.007577 -32.248200   0.002776   0.000159 -28.365200  -4.174230   7.677790 -38.106300  -0.000641  -0.003157 -25.378800   0.005212  -0.008005 -31.963500  -7.150450  11.281500 -49.006000   0.003965  -0.005875 -32.638000   0.002219  -0.003902   5.566150   4.686740   6.917540  70.081300  -6.231250  -5.526830   4.060400  -6.080600  11.690900 -20.611800  -1.107180  -0.154844 -37.926800  35.937500  76.046400  30.330200   0.009260  -0.005321  10.165100   0.003341  -0.001295  30.701100  -0.482802  -0.812885  25.121900   0.004500   0.000326  17.585300  -0.000142  -0.002242  28.114300  -1.521720  -2.846140  33.010800  -0.000075   0.000135  21.985200   0.006959   0.000098  27.989600  -3.429140  -6.421290  33.270300   0.001490  -0.000472  22.158000   0.002759   0.005261  34.747700  -4.162240  -5.973360  52.447400  -0.000616   0.004259  34.929900   0.002234   0.003889   1.856820   4.630850  -1.061420  -0.307349   0.625630  13.751000  -2.488330  -3.447470   1.864470  -0.000000   0.000000  -0.000000  -1.890040   4.957060  -3.718520   1.453190   0.580146 -11.387500   1.064430  -2.672510   0.279745  -0.000000   0.000000   0.000000
  0.938283  89.513100   0.689699  -0.286420  -2.016890   0.139723   1.172650   1.566890  -0.877887   2.370510   3.115290  -1.788680  -2.345510   0.833629   0.030422  -3.865280   1.682320   5.343950  -5.157420   3.532030  10.905400 -78.194800  10.527000   1.816050   0.728434   5.826450 -16.434200   8.861890  -6.133480   0.622679  39.403100  33.230500 -48.805700 -33.248800   0.012483   0.008229 -11.624300   0.005533   0.005426 -34.823300  -0.868518   1.241320 -28.499500   0.001102   0.004272 -19.955500   0.000698   0.001556 -32.089400  -3.695640   5.873560 -48.419100   0.000498   0.007574 -32.247200   0.002774   0.000156 -28.366100  -4.171070   7.671810 -38.106200  -0.000636  -0.003156 -25.378700   0.005210  -0.008001 -31.969500  -7.146060  11.272000 -49.014100   0.003961  -0.005874 -32.643400   0.002220  -0.003900   5.585410   4.611150   6.927640  70.054000  -6.241460  -5.563060   4.076570  -6.163650  11.682600 -20.579900  -1.087680  -0.108305 -37.895700  35.903400  75.987600  30.360400   0.009252  -0.005338  10.180200   0.003341  -0.001288  30.685100  -0.505923  -0.855455  25.109300   0.004497   0.000329  17.576500  -0.000144  -0.002242  28.112500  -1.532660  -2.866100  33.007700  -0.000076   0.000137  21.983100   0.006959   0.000098  27.995600  -3.411570  -6.387070  33.299700   0.001486  -0.000471  22.177600   0.002758   0.005264  34.733800  -4.140830  -5.944390  52.423200  -0.000616   0.004249  34.913800   0.002236   0.003893   1.855460   4.645010  -1.042310  -0.306976   0.624079  13.739900  -2.489750  -3.447190   1.855740   0.000000   0.000000   0.000000  -1.885640   4.975600  -3.721840   1.443220   0.578910 -11.386700   1.064340  -2.674170   0.279406   0.000000   0.000000   0.000000
  0.947189  89.513000   0.689700  -0.286715  -2.046260   0.136874   1.172820   1.607790  -0.866452   2.371210   3.197310  -1.766690  -2.345100   0.809508   0.030525  -3.862250   1.633870   5.301040  -5.163620   3.486550  10.874700 -78.168200  10.562000   1.843090   0.743878   5.796400 -16.444500   8.876990  -6.155990   0.651629  39.383100  33.211700 -48.821500 -33.265000   0.012486   0.008243 -11.632500   0.005519   0.005436 -34.833500  -0.864406   1.241930 -28.507800   0.001108   0.004275 -19.955500   0.000698   0.001564 -32.085400  -3.695630   5.873410 -48.413000   0.000501   0.007567 -32.243100   0.002769   0.000150 -28.367800  -4.164810   7.660030 -38.106000  -0.000622  -0.003152 -25.378600   0.005206  -0.007989 -31.977200  -7.137420  11.255700 -49.022200   0.003951  -0.005869 -32.648800   0.002221  -0.003894   5.611990   4.479580   6.937220  70.015700  -6.251660  -5.599280   4.102850  -6.312700  11.644500 -20.547800  -1.058040  -0.044119 -37.864700  35.869200  75.928900  30.403700   0.009236  -0.005356  10.201800   0.003334  -0.001281  30.577200  -0.529044  -0.898026  25.021200   0.004490   0.000338  17.514800  -0.000151  -0.002243  28.105200  -1.556260  -2.911080  32.985700  -0.000080   0.000141  21.968500   0.006956   0.000102  28.001600  -3.393990  -6.352860  33.329100   0.001476  -0.000465  22.197200   0.002756   0.005273  34.678300  -4.110780  -5.915360  52.336200  -0.000619   0.004222  34.855900   0.002243   0.003903   1.854260   4.675050  -1.023230  -0.306341   0.618147  13.728800  -2.492740  -3.445110   1.846200   0.000000   0.000000   0.000000  -1.875260   5.009300  -3.733430   1.424240   0.577015 -11.381400   1.063660  -2.677400   0.277027   0.000000   0.000000  -0.000000
  0.950973  89.512900   0.687572  -0.286915  -2.077710   0.132453   1.172950   1.655680  -0.851464   2.371860   3.293390  -1.737750  -2.344920   0.776218   0.030505  -3.857660   1.566550   5.258540  -5.175270   3.428950  10.827700 -78.120800  10.612600   1.870360   0.752206   5.745520 -16.474600   8.874480  -6.176840   0.666095  39.382500  33.219400 -48.866800 -33.273700   0.012482   0.008254 -11.636900   0.005514   0.005433 -34.839400  -0.857776   1.233730 -28.512700   0.001119   0.004279 -19.957100   0.000697   0.001576 -32.076700  -3.695630   5.873450 -48.399800   0.000505   0.007556 -32.234300   0.002761   0.000140 -28.370200  -4.155870   7.643470 -38.105800  -0.000599  -0.003147 -25.378500   0.005199  -0.007969 -31.975000  -7.124790  11.237500 -49.014700   0.003935  -0.005862 -32.643700   0.002221  -0.003885   5.628640   4.361010   6.913280  70.007900  -6.207790  -5.550710   4.113980  -6.450310  11.568800 -20.552500  -1.048960  -0.028838 -37.903500  35.923800  75.952900  30.423100   0.009224  -0.005341  10.211500   0.003319  -0.001284  30.264300  -0.457484  -0.780107  24.763900   0.004477   0.000355  17.334700  -0.000162  -0.002242  28.074200  -1.587570  -2.973880  32.784300  -0.000089   0.000144  21.834400   0.006950   0.000113  27.981800  -3.395070  -6.361610  33.185800   0.001459  -0.000454  22.101700   0.002750   0.005287  34.554500  -4.100090  -5.928810  52.150500  -0.000628   0.004180  34.732200   0.002258   0.003915   1.855160   4.714570  -1.027330  -0.312149   0.604686  13.734700  -2.497990  -3.437780   1.845230  -0.000000   0.000000  -0.000000  -1.860240   5.042230  -3.753130   1.404400   0.575819 -11.358500   1.061260  -2.680790   0.269559  -0.000000   0.000000  -0.000000
  0.952628  89.512800   0.683679  -0.287116  -2.113100   0.125812   1.173070   1.709820  -0.834387   2.372500   3.402000  -1.704760  -2.344850   0.739383   0.030369  -3.855620   1.491980   5.218010  -5.190010   3.365950  10.776600 -78.062500  10.676000   1.901590   0.758652   5.686460 -16.518100   8.869200  -6.197550   0.676946  39.388400  33.233800 -48.914100 -33.280900   0.012473   0.008259 -11.640700   0.005506   0.005429 -34.843100  -0.853295   1.225540 -28.515500   0.001133   0.004285 -19.959400   0.000697   0.001593 -32.066300  -3.695630   5.873720 -48.384000   0.000512   0.007540 -32.223800   0.002750   0.000127 -28.371900  -4.149340   7.631420 -38.105700  -0.000570  -0.003139 -25.378400   0.005189  -0.007942 -31.971000  -7.116410  11.226300 -49.007000   0.003914  -0.005852 -32.638600   0.002222  -0.003873   5.646340   4.239240   6.876160  70.014000  -6.126440  -5.431990   4.119290  -6.608860  11.452700 -20.587300  -1.025990  -0.013649 -37.981200  36.039200  76.021400  30.435000   0.009207  -0.005327  10.217500   0.003299  -0.001292  29.749000  -0.354952  -0.615825  24.341400   0.004461   0.000377  17.039000  -0.000176  -0.002241  28.021700  -1.622930  -3.046370  32.428000  -0.000100   0.000148  21.597100   0.006942   0.000128  27.950000  -3.396150  -6.370360  32.954400   0.001436  -0.000439  21.947600   0.002743   0.005305  34.417200  -4.093280  -5.947510  51.945000  -0.000640   0.004124  34.595400   0.002277   0.003931   1.855850   4.757900  -1.032930  -0.322807   0.590617  13.740500  -2.501800  -3.428150   1.845070  -0.000000   0.000000  -0.000000  -1.842130   5.078400  -3.784690   1.380770   0.574953 -11.316100   1.057710  -2.685040   0.260382  -0.000000   0.000000  -0.000000
  0.953113  89.512700   0.680195  -0.285114  -2.149570   0.116919   1.173180   1.763860  -0.818266   2.373120   3.510410  -1.673690  -2.347480   0.705587   0.029255  -3.859720   1.423600   5.189590  -5.205680   3.309640  10.735900 -77.999300  10.753200   1.937860   0.763542   5.629060 -16.570200   8.865130  -6.213370   0.686465  39.382800  33.234100 -48.930500 -33.286600   0.012466   0.008249 -11.643400   0.005483   0.005448 -34.843700  -0.856546   1.230270 -28.516000   0.001150   0.004293 -19.960000   0.000698   0.001614 -32.055800  -3.695680   5.875710 -48.368300   0.000520   0.007521 -32.213300   0.002736   0.000115 -28.372100  -4.148530   7.629920 -38.105800  -0.000535  -0.003130 -25.378400   0.005176  -0.007909 -31.970700  -7.117350  11.228200 -49.006800   0.003887  -0.005841 -32.638500   0.002225  -0.003858   5.662960   4.120610   6.852250  70.024100  -6.046800  -5.268890   4.125620  -6.795010  11.290100 -20.757100  -0.932689   0.028516 -38.083600  36.193400  76.145400  30.439300   0.009180  -0.005328  10.219700   0.003277  -0.001310  29.057600  -0.302655  -0.548273  23.775600   0.004441   0.000401  16.642900  -0.000194  -0.002241  27.954900  -1.664760  -3.134980  32.007300  -0.000111   0.000152  21.316900   0.006933   0.000142  27.920800  -3.395310  -6.370250  32.745400   0.001404  -0.000425  21.808500   0.002736   0.005325  34.310100  -4.088280  -5.954870  51.779100  -0.000650   0.004054  34.484900   0.002299   0.003951   1.853260   4.795290  -1.034870  -0.333499   0.583277  13.739600  -2.501520  -3.420370   1.851450  -0.000000   0.000000   0.000000  -1.822740   5.116680  -3.836650   1.352910   0.574476 -11.256000   1.053430  -2.690690   0.251835  -0.000000   0.000000  -0.000000
